<svg version="1.2" xmlns="http://www.w3.org/2000/svg" viewBox="0 0 2480 3508" width="2480" height="3508">
	<title>LOGO_R-cdr</title>
	<defs>
		<clipPath clipPathUnits="userSpaceOnUse" id="cp1">
			<path d="m0 0h2480v3508h-2480z"/>
		</clipPath>
	</defs>
	<style>
		.s0 { fill: #2c2e35 } 
		.s1 { fill: none } 
	</style>
	<g id="Group 7">
		<path id="Object 8" fill-rule="evenodd" class="s0" d="m6669.8-343.2c78.4 0 142 63.6 142 142.1 0 78.4-63.6 142-142 142-78.5 0-142.1-63.6-142.1-142 0-78.5 63.6-142.1 142.1-142.1zm-99.6 142.1c0 55 44.6 99.5 99.6 99.5 55 0 99.5-44.5 99.5-99.5 0-55-44.5-99.6-99.5-99.6-55 0-99.6 44.6-99.6 99.6z"/>
		<path id="Object 9" fill-rule="evenodd" class="s0" d="m6613.1-136.6v-129.1h66.5c12.4 0 21.8 1 28.3 3.2q9.8 3.1 15.8 11.7 6 8.6 6 20.9c0 7.2-1.6 13.4-4.6 18.6q-4.6 7.8-12.6 12.6c-3.4 2.1-8.1 3.8-14 5.1q7.1 2.4 10.4 4.8 2.2 1.6 6.4 6.8c2.8 3.5 4.6 6.1 5.6 8l19.3 37.4h-45.1l-21.4-39.4c-2.7-5.1-5.1-8.5-7.2-10q-4.3-3-9.8-3h-3.5v52.4zm40.1-76.8h16.8q2.7 0 10.6-1.7 4-0.8 6.5-4.1 2.5-3.2 2.5-7.5 0-6.2-4-9.6-4-3.4-14.9-3.3h-17.5z"/>
	</g>
	<g id="Page 1" clip-path="url(#cp1)">
		<g id="Group 1">
			<path id="Object 2" class="s0" d="m1492.9 817.4l-44 6.1c-354.1 79.5-715.4 153.4-1051.6 296.9-199.8 92.8-229.4 151.8-6.3 163.7 71.9 0.6 159.8-6.3 252.3-9.2 212.2-6.7 471.1-31.6 561.7-15 82.8 14.5 62 50.5-44.9 104.5-182.3 82.1-366 159.7-527 224-82.3 32.9-154.8 66.2-216.2 93.1-38.7 17-72.4 35.8-102.4 52.2-78.3 42.7-148.8 90.8-212.3 140.4l-12.6 32.6c54.9-21.2 104.1-54.1 188.1-107.9 16.8-10.8 35.9-21.1 56.4-32.7 67.9-38.5 138.4-68.1 209.9-99 227.6-98.6 450.4-179.2 656.9-280.5 214.6-108.6 179.1-152.9 28.9-167.8-212.4-19.5-760.6 45.5-866.5 20.6-110.3-21.9 49.6-95.8 297.8-177 223-73 521.7-144.9 772.9-195.6z"/>
			<path id="Object 3" class="s0" d="m1504.7 1068.3l29.6 20.7c-9.5 13.7-19.3 27.5-29.1 41.1 28.5-4.9 58.7-9.8 92-14.6l-7.2 36.5-115.9 21.7c-7.1 10.1-13.8 19.9-20.1 29.5-23.6 35.6-45.4 67.8-56.6 95.4-4.1 12.3-2.7 13.8 7.6 6.2 100.1-70 202.6-120.3 307.4-172.2 68.1-30 90.3-24.6 56.9 23.6-29.9 41.4-74.7 85.4-97.5 113.6l-13.8 33.6c-27.5-17.3-15.2-57.4 45.1-125.2-74.2 36.8-147.7 74.8-217.6 118.9-38.4 24.2-64.6 39.6-83 43.7-38.5 6.7-48.1-13-35-53.4 12.9-32.2 32.1-67.2 55.8-104.1l-79.1 14.8-7.2-35.5c38.5-7.6 75.7-15.3 115.4-22.8 16.3-23.3 33.9-47.2 52.3-71.5z"/>
			<path id="Object 4" class="s0" d="m1744.5 1055.9l14.4 48.7c115.6-37.4 134-54.8 79.1-57.1 14.7-19.3-21.9-13.9-93.5 8.4z"/>
			<path id="Object 5" class="s0" d="m2337.1 1191.5l4.5 36.7c-101.4 13.5-202.1 27.2-297.3 41.8-34.2 5.7-67.2 11.6-98.8 17.8-58.6 10.5-111.4 1.1-69.7-76.6l-54.3 27.7-16.8-32.8 108.3-56c38-50.6 86.4-88.5 151.6-105.9 164.1-53.7 148.5-39.7 1.1 58.2-24.8 16.5-43 32-60.7 41.7-30.8 17.1-51 25.7-67.2 35.2-42.8 63.1-48.7 84.4 29.7 66.1 122.3-21.2 246-37.7 369.6-53.9z"/>
			<path id="Object 6" fill-rule="evenodd" class="s0" d="m1645.7 1359.2h-88.4v17.6h78.7c11.3 0 28.9-0.7 28.9 14.8 0 6.7 1.1 15.3-6 18.9-4 2.1-11.7 3.1-22.9 3.1h-72.9c-11.1 0-23.6 0.4-27.8-8.8h17.9 92.9v-18.9h-78.4c-11.4 0-29 0.8-29-14.9 0-19.8 10.7-20.3 29-20.3h66.5c8 0 24.1-0.8 28.2 8.4-5.2 0-10.8 0.1-16 0.2-0.1-0.1-0.2-0.1-0.3-0.1h-0.3-0.1zm-111.9 37.8l1.3 7.4c-0.8-2-1.3-4.5-1.3-7.4zm1.3 7.4q0.1 0.2 0.2 0.4h-0.1zm191.2-38.8c0-15.7 17.9-14.9 29.3-14.9h86.2c11.4 0 29.1-0.7 29.1 14.9v33.1c0 15.7-17.6 14.9-29.1 14.9h-86.2c-11.4 0-29.3 0.9-29.3-14.9zm20.8 39.3h103.3v-45.6h-103.3zm187.1 8.8v-62.9h118.8v8.5h-97.9v20.6h55.9v8.4h-55.9v25.4zm215.9-54.4v54.4h-20.8v-54.4h-57v-8.5h135.1v8.5z"/>
			<path id="Object 11" class="s1" d="m-207 484h2736.2v1695.8h-2736.2z"/>
		</g>
	</g>
</svg>