<svg id="visual" viewBox="0 0 900 600" width="900" height="600" xmlns="http://www.w3.org/2000/svg" xmlns:xlink="http://www.w3.org/1999/xlink" version="1.1"><rect x="0" y="0" width="900" height="600" fill="#ffffff"></rect><path d="M0 38L6.5 59.2C13 80.3 26 122.7 39 150.2C52 177.7 65 190.3 78 205.8C91 221.3 104 239.7 117.2 223C130.3 206.3 143.7 154.7 156.8 155C170 155.3 183 207.7 196 239C209 270.3 222 280.7 235 284.2C248 287.7 261 284.3 274 279.8C287 275.3 300 269.7 313 246.8C326 224 339 184 352 173.7C365 163.3 378 182.7 391 192C404 201.3 417 200.7 430.2 209.7C443.3 218.7 456.7 237.3 469.8 233.3C483 229.3 496 202.7 509 186.5C522 170.3 535 164.7 548 155C561 145.3 574 131.7 587 152C600 172.3 613 226.7 626 238.8C639 251 652 221 665 180.5C678 140 691 89 704 91.3C717 93.7 730 149.3 743.2 191.2C756.3 233 769.7 261 782.8 237C796 213 809 137 822 112.3C835 87.7 848 114.3 861 134.3C874 154.3 887 167.7 893.5 174.3L900 181L900 601L893.5 601C887 601 874 601 861 601C848 601 835 601 822 601C809 601 796 601 782.8 601C769.7 601 756.3 601 743.2 601C730 601 717 601 704 601C691 601 678 601 665 601C652 601 639 601 626 601C613 601 600 601 587 601C574 601 561 601 548 601C535 601 522 601 509 601C496 601 483 601 469.8 601C456.7 601 443.3 601 430.2 601C417 601 404 601 391 601C378 601 365 601 352 601C339 601 326 601 313 601C300 601 287 601 274 601C261 601 248 601 235 601C222 601 209 601 196 601C183 601 170 601 156.8 601C143.7 601 130.3 601 117.2 601C104 601 91 601 78 601C65 601 52 601 39 601C26 601 13 601 6.5 601L0 601Z" fill="#0066ff"></path><path d="M0 64L6.5 102C13 140 26 216 39 260.3C52 304.7 65 317.3 78 325C91 332.7 104 335.3 117.2 331.5C130.3 327.7 143.7 317.3 156.8 296.8C170 276.3 183 245.7 196 234.2C209 222.7 222 230.3 235 222.2C248 214 261 190 274 197.5C287 205 300 244 313 247.3C326 250.7 339 218.3 352 206.5C365 194.7 378 203.3 391 207.7C404 212 417 212 430.2 207.2C443.3 202.3 456.7 192.7 469.8 169.3C483 146 496 109 509 116.2C522 123.3 535 174.7 548 194.5C561 214.3 574 202.7 587 176.3C600 150 613 109 626 101.3C639 93.7 652 119.3 665 132C678 144.7 691 144.3 704 148.8C717 153.3 730 162.7 743.2 184C756.3 205.3 769.7 238.7 782.8 230.5C796 222.3 809 172.7 822 160.5C835 148.3 848 173.7 861 205.3C874 237 887 275 893.5 294L900 313L900 601L893.5 601C887 601 874 601 861 601C848 601 835 601 822 601C809 601 796 601 782.8 601C769.7 601 756.3 601 743.2 601C730 601 717 601 704 601C691 601 678 601 665 601C652 601 639 601 626 601C613 601 600 601 587 601C574 601 561 601 548 601C535 601 522 601 509 601C496 601 483 601 469.8 601C456.7 601 443.3 601 430.2 601C417 601 404 601 391 601C378 601 365 601 352 601C339 601 326 601 313 601C300 601 287 601 274 601C261 601 248 601 235 601C222 601 209 601 196 601C183 601 170 601 156.8 601C143.7 601 130.3 601 117.2 601C104 601 91 601 78 601C65 601 52 601 39 601C26 601 13 601 6.5 601L0 601Z" fill="#005fec"></path><path d="M0 363L6.5 367.7C13 372.3 26 381.7 39 369.2C52 356.7 65 322.3 78 302.2C91 282 104 276 117.2 270C130.3 264 143.7 258 156.8 241.8C170 225.7 183 199.3 196 177.7C209 156 222 139 235 151.5C248 164 261 206 274 248.8C287 291.7 300 335.3 313 339.3C326 343.3 339 307.7 352 290.2C365 272.7 378 273.3 391 275.2C404 277 417 280 430.2 260.2C443.3 240.3 456.7 197.7 469.8 212.3C483 227 496 299 509 297.2C522 295.3 535 219.7 548 203.3C561 187 574 230 587 230C600 230 613 187 626 201.5C639 216 652 288 665 318.3C678 348.7 691 337.3 704 297.2C717 257 730 188 743.2 198.3C756.3 208.7 769.7 298.3 782.8 328.8C796 359.3 809 330.7 822 294.2C835 257.7 848 213.3 861 186.2C874 159 887 149 893.5 144L900 139L900 601L893.5 601C887 601 874 601 861 601C848 601 835 601 822 601C809 601 796 601 782.8 601C769.7 601 756.3 601 743.2 601C730 601 717 601 704 601C691 601 678 601 665 601C652 601 639 601 626 601C613 601 600 601 587 601C574 601 561 601 548 601C535 601 522 601 509 601C496 601 483 601 469.8 601C456.7 601 443.3 601 430.2 601C417 601 404 601 391 601C378 601 365 601 352 601C339 601 326 601 313 601C300 601 287 601 274 601C261 601 248 601 235 601C222 601 209 601 196 601C183 601 170 601 156.8 601C143.7 601 130.3 601 117.2 601C104 601 91 601 78 601C65 601 52 601 39 601C26 601 13 601 6.5 601L0 601Z" fill="#0057d9"></path><path d="M0 174L6.5 184.7C13 195.3 26 216.7 39 237.3C52 258 65 278 78 265.2C91 252.3 104 206.7 117.2 214.7C130.3 222.7 143.7 284.3 156.8 294.5C170 304.7 183 263.3 196 247.8C209 232.3 222 242.7 235 271C248 299.3 261 345.7 274 341.3C287 337 300 282 313 252.2C326 222.3 339 217.7 352 244.3C365 271 378 329 391 318.5C404 308 417 229 430.2 198.2C443.3 167.3 456.7 184.7 469.8 186.7C483 188.7 496 175.3 509 172C522 168.7 535 175.3 548 180.7C561 186 574 190 587 220.7C600 251.3 613 308.7 626 343.8C639 379 652 392 665 354.7C678 317.3 691 229.7 704 200.5C717 171.3 730 200.7 743.2 236.3C756.3 272 769.7 314 782.8 306.5C796 299 809 242 822 224.2C835 206.3 848 227.7 861 222.5C874 217.3 887 185.7 893.5 169.8L900 154L900 601L893.5 601C887 601 874 601 861 601C848 601 835 601 822 601C809 601 796 601 782.8 601C769.7 601 756.3 601 743.2 601C730 601 717 601 704 601C691 601 678 601 665 601C652 601 639 601 626 601C613 601 600 601 587 601C574 601 561 601 548 601C535 601 522 601 509 601C496 601 483 601 469.8 601C456.7 601 443.3 601 430.2 601C417 601 404 601 391 601C378 601 365 601 352 601C339 601 326 601 313 601C300 601 287 601 274 601C261 601 248 601 235 601C222 601 209 601 196 601C183 601 170 601 156.8 601C143.7 601 130.3 601 117.2 601C104 601 91 601 78 601C65 601 52 601 39 601C26 601 13 601 6.5 601L0 601Z" fill="#0050c6"></path><path d="M0 302L6.5 290.8C13 279.7 26 257.3 39 250.3C52 243.3 65 251.7 78 243.3C91 235 104 210 117.2 238.3C130.3 266.7 143.7 348.3 156.8 353C170 357.7 183 285.3 196 254C209 222.7 222 232.3 235 240.5C248 248.7 261 255.3 274 262.5C287 269.7 300 277.3 313 265.3C326 253.3 339 221.7 352 243.7C365 265.7 378 341.3 391 373C404 404.7 417 392.3 430.2 392.2C443.3 392 456.7 404 469.8 384.5C483 365 496 314 509 308.2C522 302.3 535 341.7 548 358.3C561 375 574 369 587 347.5C600 326 613 289 626 266.7C639 244.3 652 236.7 665 228.7C678 220.7 691 212.3 704 217C717 221.7 730 239.3 743.2 270.7C756.3 302 769.7 347 782.8 337.2C796 327.3 809 262.7 822 264C835 265.3 848 332.7 861 335.5C874 338.3 887 276.7 893.5 245.8L900 215L900 601L893.5 601C887 601 874 601 861 601C848 601 835 601 822 601C809 601 796 601 782.8 601C769.7 601 756.3 601 743.2 601C730 601 717 601 704 601C691 601 678 601 665 601C652 601 639 601 626 601C613 601 600 601 587 601C574 601 561 601 548 601C535 601 522 601 509 601C496 601 483 601 469.8 601C456.7 601 443.3 601 430.2 601C417 601 404 601 391 601C378 601 365 601 352 601C339 601 326 601 313 601C300 601 287 601 274 601C261 601 248 601 235 601C222 601 209 601 196 601C183 601 170 601 156.8 601C143.7 601 130.3 601 117.2 601C104 601 91 601 78 601C65 601 52 601 39 601C26 601 13 601 6.5 601L0 601Z" fill="#0049b4"></path><path d="M0 269L6.5 272.7C13 276.3 26 283.7 39 315.3C52 347 65 403 78 402.8C91 402.7 104 346.3 117.2 334.2C130.3 322 143.7 354 156.8 373.5C170 393 183 400 196 405.7C209 411.3 222 415.7 235 412.5C248 409.3 261 398.7 274 379.8C287 361 300 334 313 314C326 294 339 281 352 279.7C365 278.3 378 288.7 391 308C404 327.3 417 355.7 430.2 357C443.3 358.3 456.7 332.7 469.8 338C483 343.3 496 379.7 509 370.2C522 360.7 535 305.3 548 297.5C561 289.7 574 329.3 587 363.2C600 397 613 425 626 436.3C639 447.7 652 442.3 665 414.8C678 387.3 691 337.7 704 321C717 304.3 730 320.7 743.2 321C756.3 321.3 769.7 305.7 782.8 291.3C796 277 809 264 822 278.8C835 293.7 848 336.3 861 347.2C874 358 887 337 893.5 326.5L900 316L900 601L893.5 601C887 601 874 601 861 601C848 601 835 601 822 601C809 601 796 601 782.8 601C769.7 601 756.3 601 743.2 601C730 601 717 601 704 601C691 601 678 601 665 601C652 601 639 601 626 601C613 601 600 601 587 601C574 601 561 601 548 601C535 601 522 601 509 601C496 601 483 601 469.8 601C456.7 601 443.3 601 430.2 601C417 601 404 601 391 601C378 601 365 601 352 601C339 601 326 601 313 601C300 601 287 601 274 601C261 601 248 601 235 601C222 601 209 601 196 601C183 601 170 601 156.8 601C143.7 601 130.3 601 117.2 601C104 601 91 601 78 601C65 601 52 601 39 601C26 601 13 601 6.5 601L0 601Z" fill="#0042a2"></path><path d="M0 452L6.5 449.2C13 446.3 26 440.7 39 435C52 429.3 65 423.7 78 397.7C91 371.7 104 325.3 117.2 332.2C130.3 339 143.7 399 156.8 412.7C170 426.3 183 393.7 196 389.8C209 386 222 411 235 410.3C248 409.7 261 383.3 274 384.5C287 385.7 300 414.3 313 430C326 445.7 339 448.3 352 425.3C365 402.3 378 353.7 391 344.7C404 335.7 417 366.3 430.2 381.3C443.3 396.3 456.7 395.7 469.8 393.3C483 391 496 387 509 399.3C522 411.7 535 440.3 548 446.7C561 453 574 437 587 433.7C600 430.3 613 439.7 626 415.8C639 392 652 335 665 310.2C678 285.3 691 292.7 704 318.8C717 345 730 390 743.2 391.5C756.3 393 769.7 351 782.8 351.3C796 351.7 809 394.3 822 402.2C835 410 848 383 861 369.2C874 355.3 887 354.7 893.5 354.3L900 354L900 601L893.5 601C887 601 874 601 861 601C848 601 835 601 822 601C809 601 796 601 782.8 601C769.7 601 756.3 601 743.2 601C730 601 717 601 704 601C691 601 678 601 665 601C652 601 639 601 626 601C613 601 600 601 587 601C574 601 561 601 548 601C535 601 522 601 509 601C496 601 483 601 469.8 601C456.7 601 443.3 601 430.2 601C417 601 404 601 391 601C378 601 365 601 352 601C339 601 326 601 313 601C300 601 287 601 274 601C261 601 248 601 235 601C222 601 209 601 196 601C183 601 170 601 156.8 601C143.7 601 130.3 601 117.2 601C104 601 91 601 78 601C65 601 52 601 39 601C26 601 13 601 6.5 601L0 601Z" fill="#003a90"></path><path d="M0 383L6.5 399.7C13 416.3 26 449.7 39 466.5C52 483.3 65 483.7 78 457.2C91 430.7 104 377.3 117.2 374.8C130.3 372.3 143.7 420.7 156.8 426.5C170 432.3 183 395.7 196 372.8C209 350 222 341 235 344.5C248 348 261 364 274 387C287 410 300 440 313 448.3C326 456.7 339 443.3 352 440.7C365 438 378 446 391 431C404 416 417 378 430.2 361.8C443.3 345.7 456.7 351.3 469.8 373.7C483 396 496 435 509 447C522 459 535 444 548 441.8C561 439.7 574 450.3 587 455.5C600 460.7 613 460.3 626 439.7C639 419 652 378 665 374.3C678 370.7 691 404.3 704 426.8C717 449.3 730 460.7 743.2 451C756.3 441.3 769.7 410.7 782.8 392.7C796 374.7 809 369.3 822 375.5C835 381.7 848 399.3 861 415C874 430.7 887 444.3 893.5 451.2L900 458L900 601L893.5 601C887 601 874 601 861 601C848 601 835 601 822 601C809 601 796 601 782.8 601C769.7 601 756.3 601 743.2 601C730 601 717 601 704 601C691 601 678 601 665 601C652 601 639 601 626 601C613 601 600 601 587 601C574 601 561 601 548 601C535 601 522 601 509 601C496 601 483 601 469.8 601C456.7 601 443.3 601 430.2 601C417 601 404 601 391 601C378 601 365 601 352 601C339 601 326 601 313 601C300 601 287 601 274 601C261 601 248 601 235 601C222 601 209 601 196 601C183 601 170 601 156.8 601C143.7 601 130.3 601 117.2 601C104 601 91 601 78 601C65 601 52 601 39 601C26 601 13 601 6.5 601L0 601Z" fill="#00337f"></path><path d="M0 393L6.5 407.2C13 421.3 26 449.7 39 449.8C52 450 65 422 78 413.7C91 405.3 104 416.7 117.2 427C130.3 437.3 143.7 446.7 156.8 453.2C170 459.7 183 463.3 196 462.5C209 461.7 222 456.3 235 465.2C248 474 261 497 274 508.2C287 519.3 300 518.7 313 518.3C326 518 339 518 352 517.7C365 517.3 378 516.7 391 492.5C404 468.3 417 420.7 430.2 415.3C443.3 410 456.7 447 469.8 462.8C483 478.7 496 473.3 509 465.7C522 458 535 448 548 455.8C561 463.7 574 489.3 587 481.7C600 474 613 433 626 409C639 385 652 378 665 375.2C678 372.3 691 373.7 704 373.7C717 373.7 730 372.3 743.2 375.8C756.3 379.3 769.7 387.7 782.8 399.8C796 412 809 428 822 434.5C835 441 848 438 861 438.2C874 438.3 887 441.7 893.5 443.3L900 445L900 601L893.5 601C887 601 874 601 861 601C848 601 835 601 822 601C809 601 796 601 782.8 601C769.7 601 756.3 601 743.2 601C730 601 717 601 704 601C691 601 678 601 665 601C652 601 639 601 626 601C613 601 600 601 587 601C574 601 561 601 548 601C535 601 522 601 509 601C496 601 483 601 469.8 601C456.7 601 443.3 601 430.2 601C417 601 404 601 391 601C378 601 365 601 352 601C339 601 326 601 313 601C300 601 287 601 274 601C261 601 248 601 235 601C222 601 209 601 196 601C183 601 170 601 156.8 601C143.7 601 130.3 601 117.2 601C104 601 91 601 78 601C65 601 52 601 39 601C26 601 13 601 6.5 601L0 601Z" fill="#002c6e"></path><path d="M0 534L6.5 534.5C13 535 26 536 39 525.7C52 515.3 65 493.7 78 484.2C91 474.7 104 477.3 117.2 474.7C130.3 472 143.7 464 156.8 469.3C170 474.7 183 493.3 196 503.2C209 513 222 514 235 505.5C248 497 261 479 274 474.3C287 469.7 300 478.3 313 480.2C326 482 339 477 352 473.8C365 470.7 378 469.3 391 478C404 486.7 417 505.3 430.2 510.5C443.3 515.7 456.7 507.3 469.8 496.8C483 486.3 496 473.7 509 474.7C522 475.7 535 490.3 548 485.5C561 480.7 574 456.3 587 450.3C600 444.3 613 456.7 626 476.3C639 496 652 523 665 526.5C678 530 691 510 704 503.8C717 497.7 730 505.3 743.2 501.3C756.3 497.3 769.7 481.7 782.8 472.5C796 463.3 809 460.7 822 474.5C835 488.3 848 518.7 861 518.3C874 518 887 487 893.5 471.5L900 456L900 601L893.5 601C887 601 874 601 861 601C848 601 835 601 822 601C809 601 796 601 782.8 601C769.7 601 756.3 601 743.2 601C730 601 717 601 704 601C691 601 678 601 665 601C652 601 639 601 626 601C613 601 600 601 587 601C574 601 561 601 548 601C535 601 522 601 509 601C496 601 483 601 469.8 601C456.7 601 443.3 601 430.2 601C417 601 404 601 391 601C378 601 365 601 352 601C339 601 326 601 313 601C300 601 287 601 274 601C261 601 248 601 235 601C222 601 209 601 196 601C183 601 170 601 156.8 601C143.7 601 130.3 601 117.2 601C104 601 91 601 78 601C65 601 52 601 39 601C26 601 13 601 6.5 601L0 601Z" fill="#00265d"></path><path d="M0 475L6.5 480.3C13 485.7 26 496.3 39 512C52 527.7 65 548.3 78 552C91 555.7 104 542.3 117.2 525C130.3 507.7 143.7 486.3 156.8 480.7C170 475 183 485 196 495.3C209 505.7 222 516.3 235 511.8C248 507.3 261 487.7 274 495.5C287 503.3 300 538.7 313 547.2C326 555.7 339 537.3 352 530C365 522.7 378 526.3 391 518.2C404 510 417 490 430.2 496C443.3 502 456.7 534 469.8 543.3C483 552.7 496 539.3 509 526.8C522 514.3 535 502.7 548 501.2C561 499.7 574 508.3 587 508.5C600 508.7 613 500.3 626 499.2C639 498 652 504 665 502.8C678 501.7 691 493.3 704 504.2C717 515 730 545 743.2 558.3C756.3 571.7 769.7 568.3 782.8 565C796 561.7 809 558.3 822 549.5C835 540.7 848 526.3 861 514.7C874 503 887 494 893.5 489.5L900 485L900 601L893.5 601C887 601 874 601 861 601C848 601 835 601 822 601C809 601 796 601 782.8 601C769.7 601 756.3 601 743.2 601C730 601 717 601 704 601C691 601 678 601 665 601C652 601 639 601 626 601C613 601 600 601 587 601C574 601 561 601 548 601C535 601 522 601 509 601C496 601 483 601 469.8 601C456.7 601 443.3 601 430.2 601C417 601 404 601 391 601C378 601 365 601 352 601C339 601 326 601 313 601C300 601 287 601 274 601C261 601 248 601 235 601C222 601 209 601 196 601C183 601 170 601 156.8 601C143.7 601 130.3 601 117.2 601C104 601 91 601 78 601C65 601 52 601 39 601C26 601 13 601 6.5 601L0 601Z" fill="#001f4d"></path><path d="M0 527L6.5 530.2C13 533.3 26 539.7 39 551.2C52 562.7 65 579.3 78 576C91 572.7 104 549.3 117.2 546C130.3 542.7 143.7 559.3 156.8 559.3C170 559.3 183 542.7 196 538.7C209 534.7 222 543.3 235 546.3C248 549.3 261 546.7 274 543.7C287 540.7 300 537.3 313 537.8C326 538.3 339 542.7 352 552.5C365 562.3 378 577.7 391 584.3C404 591 417 589 430.2 576.3C443.3 563.7 456.7 540.3 469.8 531.7C483 523 496 529 509 532C522 535 535 535 548 535C561 535 574 535 587 545C600 555 613 575 626 577.3C639 579.7 652 564.3 665 557.5C678 550.7 691 552.3 704 555C717 557.7 730 561.3 743.2 564.8C756.3 568.3 769.7 571.7 782.8 567.5C796 563.3 809 551.7 822 541.8C835 532 848 524 861 531.2C874 538.3 887 560.7 893.5 571.8L900 583L900 601L893.5 601C887 601 874 601 861 601C848 601 835 601 822 601C809 601 796 601 782.8 601C769.7 601 756.3 601 743.2 601C730 601 717 601 704 601C691 601 678 601 665 601C652 601 639 601 626 601C613 601 600 601 587 601C574 601 561 601 548 601C535 601 522 601 509 601C496 601 483 601 469.8 601C456.7 601 443.3 601 430.2 601C417 601 404 601 391 601C378 601 365 601 352 601C339 601 326 601 313 601C300 601 287 601 274 601C261 601 248 601 235 601C222 601 209 601 196 601C183 601 170 601 156.8 601C143.7 601 130.3 601 117.2 601C104 601 91 601 78 601C65 601 52 601 39 601C26 601 13 601 6.5 601L0 601Z" fill="#00183d"></path></svg>