<svg id="visual" viewBox="0 0 900 600" width="900" height="600" xmlns="http://www.w3.org/2000/svg" xmlns:xlink="http://www.w3.org/1999/xlink" version="1.1"><path d="M0 139L6.5 169C13 199 26 259 39 251C52 243 65 167 78 124C91 81 104 71 117.2 76C130.3 81 143.7 101 156.8 137C170 173 183 225 196 221C209 217 222 157 235 112C248 67 261 37 274 62C287 87 300 167 313 171C326 175 339 103 352 83C365 63 378 95 391 113C404 131 417 135 430.2 123C443.3 111 456.7 83 469.8 81C483 79 496 103 509 127C522 151 535 175 548 175C561 175 574 151 587 143C600 135 613 143 626 141C639 139 652 127 665 104C678 81 691 47 704 55C717 63 730 113 743.2 140C756.3 167 769.7 171 782.8 161C796 151 809 127 822 100C835 73 848 43 861 46C874 49 887 85 893.5 103L900 121L900 0L893.5 0C887 0 874 0 861 0C848 0 835 0 822 0C809 0 796 0 782.8 0C769.7 0 756.3 0 743.2 0C730 0 717 0 704 0C691 0 678 0 665 0C652 0 639 0 626 0C613 0 600 0 587 0C574 0 561 0 548 0C535 0 522 0 509 0C496 0 483 0 469.8 0C456.7 0 443.3 0 430.2 0C417 0 404 0 391 0C378 0 365 0 352 0C339 0 326 0 313 0C300 0 287 0 274 0C261 0 248 0 235 0C222 0 209 0 196 0C183 0 170 0 156.8 0C143.7 0 130.3 0 117.2 0C104 0 91 0 78 0C65 0 52 0 39 0C26 0 13 0 6.5 0L0 0Z" fill="#89e6ff"></path><path d="M0 217L6.5 241C13 265 26 313 39 295C52 277 65 193 78 143C91 93 104 77 117.2 85C130.3 93 143.7 125 156.8 163C170 201 183 245 196 244C209 243 222 197 235 158C248 119 261 87 274 116C287 145 300 235 313 238C326 241 339 157 352 124C365 91 378 109 391 125C404 141 417 155 430.2 143C443.3 131 456.7 93 469.8 92C483 91 496 127 509 157C522 187 535 211 548 207C561 203 574 171 587 169C600 167 613 195 626 192C639 189 652 155 665 136C678 117 691 113 704 127C717 141 730 173 743.2 188C756.3 203 769.7 201 782.8 192C796 183 809 167 822 150C835 133 848 115 861 112C874 109 887 121 893.5 127L900 133L900 119L893.5 101C887 83 874 47 861 44C848 41 835 71 822 98C809 125 796 149 782.8 159C769.7 169 756.3 165 743.2 138C730 111 717 61 704 53C691 45 678 79 665 102C652 125 639 137 626 139C613 141 600 133 587 141C574 149 561 173 548 173C535 173 522 149 509 125C496 101 483 77 469.8 79C456.7 81 443.3 109 430.2 121C417 133 404 129 391 111C378 93 365 61 352 81C339 101 326 173 313 169C300 165 287 85 274 60C261 35 248 65 235 110C222 155 209 215 196 219C183 223 170 171 156.8 135C143.7 99 130.3 79 117.2 74C104 69 91 79 78 122C65 165 52 241 39 249C26 257 13 197 6.5 167L0 137Z" fill="#6bd9ff"></path><path d="M0 301L6.5 315C13 329 26 357 39 337C52 317 65 249 78 219C91 189 104 197 117.2 197C130.3 197 143.7 189 156.8 207C170 225 183 269 196 290C209 311 222 309 235 276C248 243 261 179 274 186C287 193 300 271 313 290C326 309 339 269 352 240C365 211 378 193 391 203C404 213 417 251 430.2 240C443.3 229 456.7 169 469.8 153C483 137 496 165 509 189C522 213 535 233 548 233C561 233 574 213 587 210C600 207 613 221 626 238C639 255 652 275 665 276C678 277 691 259 704 261C717 263 730 285 743.2 285C756.3 285 769.7 263 782.8 249C796 235 809 229 822 217C835 205 848 187 861 195C874 203 887 237 893.5 254L900 271L900 131L893.5 125C887 119 874 107 861 110C848 113 835 131 822 148C809 165 796 181 782.8 190C769.7 199 756.3 201 743.2 186C730 171 717 139 704 125C691 111 678 115 665 134C652 153 639 187 626 190C613 193 600 165 587 167C574 169 561 201 548 205C535 209 522 185 509 155C496 125 483 89 469.8 90C456.7 91 443.3 129 430.2 141C417 153 404 139 391 123C378 107 365 89 352 122C339 155 326 239 313 236C300 233 287 143 274 114C261 85 248 117 235 156C222 195 209 241 196 242C183 243 170 199 156.8 161C143.7 123 130.3 91 117.2 83C104 75 91 91 78 141C65 191 52 275 39 293C26 311 13 263 6.5 239L0 215Z" fill="#4dccff"></path><path d="M0 301L6.5 315C13 329 26 357 39 343C52 329 65 273 78 249C91 225 104 233 117.2 227C130.3 221 143.7 201 156.8 216C170 231 183 281 196 305C209 329 222 327 235 299C248 271 261 217 274 232C287 247 300 331 313 352C326 373 339 331 352 292C365 253 378 217 391 228C404 239 417 297 430.2 293C443.3 289 456.7 223 469.8 204C483 185 496 213 509 229C522 245 535 249 548 242C561 235 574 217 587 219C600 221 613 243 626 261C639 279 652 293 665 289C678 285 691 263 704 267C717 271 730 301 743.2 310C756.3 319 769.7 307 782.8 296C796 285 809 275 822 263C835 251 848 237 861 248C874 259 887 295 893.5 313L900 331L900 269L893.5 252C887 235 874 201 861 193C848 185 835 203 822 215C809 227 796 233 782.8 247C769.7 261 756.3 283 743.2 283C730 283 717 261 704 259C691 257 678 275 665 274C652 273 639 253 626 236C613 219 600 205 587 208C574 211 561 231 548 231C535 231 522 211 509 187C496 163 483 135 469.8 151C456.7 167 443.3 227 430.2 238C417 249 404 211 391 201C378 191 365 209 352 238C339 267 326 307 313 288C300 269 287 191 274 184C261 177 248 241 235 274C222 307 209 309 196 288C183 267 170 223 156.8 205C143.7 187 130.3 195 117.2 195C104 195 91 187 78 217C65 247 52 315 39 335C26 355 13 327 6.5 313L0 299Z" fill="#2cbeff"></path><path d="M0 349L6.5 355C13 361 26 373 39 359C52 345 65 305 78 297C91 289 104 313 117.2 310C130.3 307 143.7 277 156.8 294C170 311 183 375 196 392C209 409 222 379 235 333C248 287 261 225 274 245C287 265 300 367 313 393C326 419 339 369 352 340C365 311 378 303 391 328C404 353 417 411 430.2 397C443.3 383 456.7 297 469.8 262C483 227 496 243 509 254C522 265 535 271 548 270C561 269 574 261 587 276C600 291 613 329 626 357C639 385 652 403 665 383C678 363 691 305 704 300C717 295 730 343 743.2 357C756.3 371 769.7 351 782.8 347C796 343 809 355 822 350C835 345 848 323 861 318C874 313 887 325 893.5 331L900 337L900 329L893.5 311C887 293 874 257 861 246C848 235 835 249 822 261C809 273 796 283 782.8 294C769.7 305 756.3 317 743.2 308C730 299 717 269 704 265C691 261 678 283 665 287C652 291 639 277 626 259C613 241 600 219 587 217C574 215 561 233 548 240C535 247 522 243 509 227C496 211 483 183 469.8 202C456.7 221 443.3 287 430.2 291C417 295 404 237 391 226C378 215 365 251 352 290C339 329 326 371 313 350C300 329 287 245 274 230C261 215 248 269 235 297C222 325 209 327 196 303C183 279 170 229 156.8 214C143.7 199 130.3 219 117.2 225C104 231 91 223 78 247C65 271 52 327 39 341C26 355 13 327 6.5 313L0 299Z" fill="#00afff"></path><path d="M0 415L6.5 424C13 433 26 451 39 438C52 425 65 381 78 371C91 361 104 385 117.2 377C130.3 369 143.7 329 156.8 349C170 369 183 449 196 462C209 475 222 421 235 361C248 301 261 235 274 261C287 287 300 405 313 436C326 467 339 411 352 385C365 359 378 363 391 387C404 411 417 455 430.2 440C443.3 425 456.7 351 469.8 315C483 279 496 281 509 282C522 283 535 283 548 292C561 301 574 319 587 337C600 355 613 373 626 390C639 407 652 423 665 413C678 403 691 367 704 371C717 375 730 419 743.2 424C756.3 429 769.7 395 782.8 388C796 381 809 401 822 404C835 407 848 393 861 385C874 377 887 375 893.5 374L900 373L900 335L893.5 329C887 323 874 311 861 316C848 321 835 343 822 348C809 353 796 341 782.8 345C769.7 349 756.3 369 743.2 355C730 341 717 293 704 298C691 303 678 361 665 381C652 401 639 383 626 355C613 327 600 289 587 274C574 259 561 267 548 268C535 269 522 263 509 252C496 241 483 225 469.8 260C456.7 295 443.3 381 430.2 395C417 409 404 351 391 326C378 301 365 309 352 338C339 367 326 417 313 391C300 365 287 263 274 243C261 223 248 285 235 331C222 377 209 407 196 390C183 373 170 309 156.8 292C143.7 275 130.3 305 117.2 308C104 311 91 287 78 295C65 303 52 343 39 357C26 371 13 359 6.5 353L0 347Z" fill="#009fff"></path><path d="M0 481L6.5 485C13 489 26 497 39 500C52 503 65 501 78 504C91 507 104 515 117.2 518C130.3 521 143.7 519 156.8 524C170 529 183 541 196 532C209 523 222 493 235 478C248 463 261 463 274 473C287 483 300 503 313 515C326 527 339 531 352 529C365 527 378 519 391 519C404 519 417 527 430.2 530C443.3 533 456.7 531 469.8 533C483 535 496 541 509 529C522 517 535 487 548 477C561 467 574 477 587 484C600 491 613 495 626 500C639 505 652 511 665 513C678 515 691 513 704 506C717 499 730 487 743.2 478C756.3 469 769.7 463 782.8 469C796 475 809 493 822 500C835 507 848 503 861 499C874 495 887 491 893.5 489L900 487L900 371L893.5 372C887 373 874 375 861 383C848 391 835 405 822 402C809 399 796 379 782.8 386C769.7 393 756.3 427 743.2 422C730 417 717 373 704 369C691 365 678 401 665 411C652 421 639 405 626 388C613 371 600 353 587 335C574 317 561 299 548 290C535 281 522 281 509 280C496 279 483 277 469.8 313C456.7 349 443.3 423 430.2 438C417 453 404 409 391 385C378 361 365 357 352 383C339 409 326 465 313 434C300 403 287 285 274 259C261 233 248 299 235 359C222 419 209 473 196 460C183 447 170 367 156.8 347C143.7 327 130.3 367 117.2 375C104 383 91 359 78 369C65 379 52 423 39 436C26 449 13 431 6.5 422L0 413Z" fill="#008eff"></path><path d="M0 541L6.5 545C13 549 26 557 39 553C52 549 65 533 78 535C91 537 104 557 117.2 564C130.3 571 143.7 565 156.8 562C170 559 183 559 196 552C209 545 222 531 235 523C248 515 261 513 274 518C287 523 300 535 313 539C326 543 339 539 352 535C365 531 378 527 391 534C404 541 417 559 430.2 568C443.3 577 456.7 577 469.8 573C483 569 496 561 509 553C522 545 535 537 548 531C561 525 574 521 587 516C600 511 613 505 626 505C639 505 652 511 665 520C678 529 691 541 704 541C717 541 730 529 743.2 523C756.3 517 769.7 517 782.8 517C796 517 809 517 822 517C835 517 848 517 861 519C874 521 887 525 893.5 527L900 529L900 485L893.5 487C887 489 874 493 861 497C848 501 835 505 822 498C809 491 796 473 782.8 467C769.7 461 756.3 467 743.2 476C730 485 717 497 704 504C691 511 678 513 665 511C652 509 639 503 626 498C613 493 600 489 587 482C574 475 561 465 548 475C535 485 522 515 509 527C496 539 483 533 469.8 531C456.7 529 443.3 531 430.2 528C417 525 404 517 391 517C378 517 365 525 352 527C339 529 326 525 313 513C300 501 287 481 274 471C261 461 248 461 235 476C222 491 209 521 196 530C183 539 170 527 156.8 522C143.7 517 130.3 519 117.2 516C104 513 91 505 78 502C65 499 52 501 39 498C26 495 13 487 6.5 483L0 479Z" fill="#007cff"></path><path d="M0 601L6.5 601C13 601 26 601 39 601C52 601 65 601 78 601C91 601 104 601 117.2 601C130.3 601 143.7 601 156.8 601C170 601 183 601 196 601C209 601 222 601 235 601C248 601 261 601 274 601C287 601 300 601 313 601C326 601 339 601 352 601C365 601 378 601 391 601C404 601 417 601 430.2 601C443.3 601 456.7 601 469.8 601C483 601 496 601 509 601C522 601 535 601 548 601C561 601 574 601 587 601C600 601 613 601 626 601C639 601 652 601 665 601C678 601 691 601 704 601C717 601 730 601 743.2 601C756.3 601 769.7 601 782.8 601C796 601 809 601 822 601C835 601 848 601 861 601C874 601 887 601 893.5 601L900 601L900 527L893.5 525C887 523 874 519 861 517C848 515 835 515 822 515C809 515 796 515 782.8 515C769.7 515 756.3 515 743.2 521C730 527 717 539 704 539C691 539 678 527 665 518C652 509 639 503 626 503C613 503 600 509 587 514C574 519 561 523 548 529C535 535 522 543 509 551C496 559 483 567 469.8 571C456.7 575 443.3 575 430.2 566C417 557 404 539 391 532C378 525 365 529 352 533C339 537 326 541 313 537C300 533 287 521 274 516C261 511 248 513 235 521C222 529 209 543 196 550C183 557 170 557 156.8 560C143.7 563 130.3 569 117.2 562C104 555 91 535 78 533C65 531 52 547 39 551C26 555 13 547 6.5 543L0 539Z" fill="#0066ff"></path></svg>